<svg width="226.906" height="63.688" viewBox="0 0 226.906 63.688" xmlns="http://www.w3.org/2000/svg"><g id="svgGroup" stroke-linecap="round" fill-rule="evenodd" font-size="9pt" stroke="#fff" stroke-width="0.25mm" fill="#fff" style="stroke:#fff;stroke-width:0.25mm;fill:#fff"><path d="M 164.031 25.656 L 164.031 27.344 L 141.219 27.344 L 141.219 48.219 L 167.219 48.219 L 167.219 49.906 L 139.531 49.906 L 139.531 4.406 L 167.219 4.406 L 167.219 6.094 L 141.219 6.094 L 141.219 25.656 L 164.031 25.656 Z M 172.656 4.406 L 187.938 45.469 L 188.844 48.219 L 189.75 45.469 L 205.031 4.406 L 206.875 4.406 L 189.875 49.906 L 187.813 49.906 L 170.813 4.406 L 172.656 4.406 Z M 91.469 62.25 L 90.844 63.688 A 17.176 17.176 0 0 1 87.259 62.13 A 12.299 12.299 0 0 1 83.359 58.594 A 12.761 12.761 0 0 1 81.496 54.5 Q 80.875 52.172 80.875 49.281 L 80.875 41.75 A 14.473 14.473 0 0 0 80.527 38.424 Q 79.463 33.932 75.138 33.118 A 11.224 11.224 0 0 0 73.063 32.937 L 73.063 30.875 A 9.957 9.957 0 0 0 76.295 30.394 Q 80.696 28.886 80.868 22.641 A 18.739 18.739 0 0 0 80.875 22.125 L 80.875 14.406 Q 80.899 9.944 82.385 6.822 A 11.834 11.834 0 0 1 83.391 5.094 Q 85.875 1.563 90.844 0 L 91.313 1.406 Q 82.563 4.25 82.563 14.75 L 82.563 21.875 A 16.445 16.445 0 0 1 82.2 25.477 Q 81.05 30.586 76.25 31.837 A 10.818 10.818 0 0 1 75.969 31.906 A 8.436 8.436 0 0 1 79.856 33.964 Q 82.417 36.432 82.555 41.369 A 20.412 20.412 0 0 1 82.563 41.937 L 82.563 49.094 Q 82.563 58.791 90.682 61.964 A 17.566 17.566 0 0 0 91.469 62.25 Z M 209.125 63.688 L 208.531 62.25 A 14.096 14.096 0 0 0 213.306 59.593 Q 217.406 56.016 217.406 49.219 L 217.406 41.938 A 15.955 15.955 0 0 1 217.79 38.288 Q 218.997 33.163 224 31.906 A 8.152 8.152 0 0 1 220.079 29.874 Q 217.406 27.287 217.406 21.875 L 217.406 14.781 A 19.355 19.355 0 0 0 216.809 9.783 Q 215.124 3.483 208.688 1.406 L 209.125 0 A 17.201 17.201 0 0 1 212.643 1.519 A 12.151 12.151 0 0 1 216.578 5.078 A 13.111 13.111 0 0 1 218.472 9.273 Q 218.934 11.021 219.054 13.075 A 24.986 24.986 0 0 1 219.094 14.25 L 219.094 22.031 A 14.573 14.573 0 0 0 219.441 25.369 Q 220.742 30.875 226.906 30.875 L 226.906 32.938 Q 219.402 32.938 219.106 41.154 A 19.135 19.135 0 0 0 219.094 41.844 L 219.094 49.25 Q 219.094 53.632 217.699 56.709 A 11.69 11.69 0 0 1 216.641 58.578 Q 214.188 62.094 209.125 63.688 Z M 24.563 36.406 L 24.563 4.406 L 26.25 4.406 L 26.25 36.094 A 19.651 19.651 0 0 1 25.786 40.488 Q 24.971 44.041 22.728 46.531 A 12.692 12.692 0 0 1 22.656 46.609 A 11.907 11.907 0 0 1 14.792 50.449 A 16.55 16.55 0 0 1 13.125 50.531 A 19.079 19.079 0 0 1 9.307 50.173 Q 7.025 49.707 5.278 48.633 A 10.162 10.162 0 0 1 3.375 47.125 A 11.012 11.012 0 0 1 0.646 42.364 Q 0.141 40.635 0.031 38.562 A 22.321 22.321 0 0 1 0 37.375 L 1.688 37.375 A 17.342 17.342 0 0 0 1.981 40.671 Q 2.603 43.883 4.547 45.891 A 8.975 8.975 0 0 0 8.256 48.151 Q 9.699 48.627 11.459 48.776 A 19.779 19.779 0 0 0 13.125 48.844 A 12.182 12.182 0 0 0 17.117 48.215 A 10.34 10.34 0 0 0 21.297 45.5 Q 24.469 42.156 24.563 36.406 Z M 53.031 30.688 L 40.281 30.688 L 40.281 49.906 L 38.594 49.906 L 38.594 4.406 L 52.813 4.406 Q 59.781 4.406 63.641 7.922 A 11.513 11.513 0 0 1 67.195 14.388 A 16.974 16.974 0 0 1 67.5 17.688 Q 67.5 23.875 63.734 27.25 A 12.451 12.451 0 0 1 59.092 29.824 Q 56.446 30.657 53.031 30.688 Z M 110.406 49.906 L 97.656 49.906 L 97.656 4.406 L 110.25 4.406 A 19.196 19.196 0 0 1 117.111 5.615 A 18.006 18.006 0 0 1 119.813 6.906 A 17.649 17.649 0 0 1 126.531 13.922 A 20.967 20.967 0 0 1 128.954 22.31 A 25.132 25.132 0 0 1 129.031 24.031 L 129.031 29.938 A 23.267 23.267 0 0 1 128.188 36.295 A 20.215 20.215 0 0 1 126.641 40.187 Q 124.25 44.75 119.969 47.313 A 18.412 18.412 0 0 1 110.735 49.902 A 21.797 21.797 0 0 1 110.406 49.906 Z M 110.5 6.094 L 99.344 6.094 L 99.344 48.219 L 110.25 48.219 Q 115.031 48.219 118.953 45.891 A 16.276 16.276 0 0 0 125.094 39.391 A 19.397 19.397 0 0 0 127.311 31.228 A 22.999 22.999 0 0 0 127.344 30.125 L 127.344 24.281 A 20.653 20.653 0 0 0 126.452 18.14 A 18.537 18.537 0 0 0 125.172 15.031 A 16.264 16.264 0 0 0 119.109 8.516 Q 115.219 6.156 110.5 6.094 Z M 40.281 6.094 L 40.281 29 L 52.813 29 A 20.587 20.587 0 0 0 56.558 28.68 Q 58.698 28.284 60.384 27.397 A 10.53 10.53 0 0 0 62.391 26.031 A 9.705 9.705 0 0 0 65.625 20.111 A 14.217 14.217 0 0 0 65.813 17.75 A 14.187 14.187 0 0 0 65.38 14.146 A 9.912 9.912 0 0 0 62.391 9.172 A 11.291 11.291 0 0 0 57.907 6.748 Q 56.214 6.257 54.195 6.135 A 22.814 22.814 0 0 0 52.813 6.094 L 40.281 6.094 Z" vector-effect="non-scaling-stroke"/></g></svg>