<svg width="447.625" height="63.688" viewBox="0 0 447.625 63.688" xmlns="http://www.w3.org/2000/svg"><g id="svgGroup" stroke-linecap="round" fill-rule="evenodd" font-size="9pt" stroke="#ffffff" stroke-width="1mm" fill="#ffffff" style="stroke:#ffffff;stroke-width:1mm;fill:#ffffff"><path d="M 384.75 25.656 L 384.75 27.344 L 361.938 27.344 L 361.938 48.219 L 387.938 48.219 L 387.938 49.906 L 360.25 49.906 L 360.25 4.406 L 387.938 4.406 L 387.938 6.094 L 361.938 6.094 L 361.938 25.656 L 384.75 25.656 Z M 393.375 4.406 L 408.656 45.469 L 409.563 48.219 L 410.469 45.469 L 425.75 4.406 L 427.594 4.406 L 410.594 49.906 L 408.531 49.906 L 391.531 4.406 L 393.375 4.406 Z M 108.219 16.094 L 108.219 23.969 A 14.956 14.956 0 0 1 110.777 19.831 A 13.463 13.463 0 0 1 113.094 17.75 Q 116.313 15.469 120.219 15.469 A 15.21 15.21 0 0 1 123.308 15.762 Q 125.137 16.142 126.518 17.013 A 7.84 7.84 0 0 1 128.297 18.547 A 9.711 9.711 0 0 1 130.06 21.703 Q 130.951 24.249 130.969 27.844 L 130.969 49.906 L 129.281 49.906 L 129.281 27.781 A 21.809 21.809 0 0 0 129.093 24.946 Q 128.635 21.61 127.063 19.734 A 6.764 6.764 0 0 0 123.959 17.679 Q 122.829 17.298 121.44 17.179 A 15.395 15.395 0 0 0 120.125 17.125 Q 115.75 17.125 112.547 20.234 A 15.094 15.094 0 0 0 108.835 26.119 A 19.219 19.219 0 0 0 108.219 28.25 L 108.219 49.906 L 106.531 49.906 L 106.531 16.094 L 108.219 16.094 Z M 62.094 49.906 L 60.375 49.906 L 60.375 44.438 A 11.037 11.037 0 0 1 56 48.891 A 11.669 11.669 0 0 1 52.856 50.095 Q 51.457 50.422 49.829 50.504 A 22.134 22.134 0 0 1 48.719 50.531 A 15.063 15.063 0 0 1 45.532 50.215 Q 42.323 49.521 40.422 47.297 A 10.565 10.565 0 0 1 38.471 43.759 Q 37.95 42.216 37.738 40.336 A 24.15 24.15 0 0 1 37.594 37.875 L 37.594 16.094 L 39.281 16.094 L 39.281 37.938 Q 39.344 43.313 41.719 46.078 A 7.645 7.645 0 0 0 45.838 48.532 Q 47.124 48.844 48.656 48.844 A 16.794 16.794 0 0 0 52.026 48.525 Q 54.124 48.095 55.763 47.086 A 9.958 9.958 0 0 0 56.531 46.562 A 9.558 9.558 0 0 0 59.742 42.185 A 13.447 13.447 0 0 0 60.375 39.875 L 60.375 16.094 L 62.094 16.094 L 62.094 49.906 Z M 96.531 49.906 L 94.594 49.906 A 12.46 12.46 0 0 1 94.264 48.375 Q 93.969 46.49 93.969 43.719 A 13.563 13.563 0 0 1 88.5 48.75 A 16.167 16.167 0 0 1 82.787 50.42 A 19.958 19.958 0 0 1 80.656 50.531 A 14.022 14.022 0 0 1 77.398 50.173 A 9.721 9.721 0 0 1 73.109 47.984 A 8.375 8.375 0 0 1 70.261 41.853 A 11.318 11.318 0 0 1 70.25 41.344 A 8.285 8.285 0 0 1 73.132 34.907 A 11.654 11.654 0 0 1 74.453 33.891 A 15.647 15.647 0 0 1 79.001 31.869 Q 81.923 31.064 85.625 31.031 L 93.969 31.031 L 93.969 26.094 Q 93.969 21.844 91.297 19.5 A 8.703 8.703 0 0 0 88.11 17.761 Q 86.179 17.156 83.656 17.156 A 14.859 14.859 0 0 0 80.058 17.571 A 11.08 11.08 0 0 0 75.938 19.531 A 8.742 8.742 0 0 0 74.083 21.427 A 6.759 6.759 0 0 0 72.844 25.406 L 71.156 25.344 A 8.352 8.352 0 0 1 73.821 19.189 A 12.077 12.077 0 0 1 74.781 18.344 A 13.194 13.194 0 0 1 81.437 15.606 A 17.405 17.405 0 0 1 83.656 15.469 A 17.724 17.724 0 0 1 87.223 15.807 Q 89.404 16.255 91.095 17.297 A 10.142 10.142 0 0 1 92.344 18.203 A 9.151 9.151 0 0 1 95.428 23.631 A 13.396 13.396 0 0 1 95.656 25.906 L 95.656 42.063 A 55.913 55.913 0 0 0 95.704 44.474 Q 95.852 47.875 96.452 49.432 A 4.686 4.686 0 0 0 96.531 49.625 L 96.531 49.906 Z M 203.438 49.906 L 201.5 49.906 A 12.46 12.46 0 0 1 201.17 48.375 Q 200.875 46.49 200.875 43.719 A 13.563 13.563 0 0 1 195.406 48.75 A 16.167 16.167 0 0 1 189.693 50.42 A 19.958 19.958 0 0 1 187.563 50.531 A 14.022 14.022 0 0 1 184.304 50.173 A 9.721 9.721 0 0 1 180.016 47.984 A 8.375 8.375 0 0 1 177.168 41.853 A 11.318 11.318 0 0 1 177.156 41.344 A 8.285 8.285 0 0 1 180.039 34.907 A 11.654 11.654 0 0 1 181.359 33.891 A 15.647 15.647 0 0 1 185.907 31.869 Q 188.829 31.064 192.531 31.031 L 200.875 31.031 L 200.875 26.094 Q 200.875 21.844 198.203 19.5 A 8.703 8.703 0 0 0 195.017 17.761 Q 193.086 17.156 190.563 17.156 A 14.859 14.859 0 0 0 186.964 17.571 A 11.08 11.08 0 0 0 182.844 19.531 A 8.742 8.742 0 0 0 180.989 21.427 A 6.759 6.759 0 0 0 179.75 25.406 L 178.063 25.344 A 8.352 8.352 0 0 1 180.728 19.189 A 12.077 12.077 0 0 1 181.688 18.344 A 13.194 13.194 0 0 1 188.343 15.606 A 17.405 17.405 0 0 1 190.563 15.469 A 17.724 17.724 0 0 1 194.13 15.807 Q 196.31 16.255 198.001 17.297 A 10.142 10.142 0 0 1 199.25 18.203 A 9.151 9.151 0 0 1 202.334 23.631 A 13.396 13.396 0 0 1 202.563 25.906 L 202.563 42.063 A 55.913 55.913 0 0 0 202.611 44.474 Q 202.758 47.875 203.358 49.432 A 4.686 4.686 0 0 0 203.438 49.625 L 203.438 49.906 Z M 312.188 62.25 L 311.563 63.688 A 17.176 17.176 0 0 1 307.977 62.13 A 12.299 12.299 0 0 1 304.078 58.594 A 12.761 12.761 0 0 1 302.215 54.5 Q 301.594 52.172 301.594 49.281 L 301.594 41.75 A 14.473 14.473 0 0 0 301.246 38.424 Q 300.182 33.932 295.856 33.118 A 11.224 11.224 0 0 0 293.781 32.937 L 293.781 30.875 A 9.957 9.957 0 0 0 297.014 30.394 Q 301.415 28.886 301.587 22.641 A 18.739 18.739 0 0 0 301.594 22.125 L 301.594 14.406 Q 301.618 9.944 303.103 6.822 A 11.834 11.834 0 0 1 304.109 5.094 Q 306.594 1.563 311.563 0 L 312.031 1.406 Q 303.281 4.25 303.281 14.75 L 303.281 21.875 A 16.445 16.445 0 0 1 302.919 25.477 Q 301.769 30.586 296.969 31.837 A 10.818 10.818 0 0 1 296.688 31.906 A 8.436 8.436 0 0 1 300.575 33.964 Q 303.136 36.432 303.273 41.369 A 20.412 20.412 0 0 1 303.281 41.937 L 303.281 49.094 Q 303.281 58.791 311.401 61.964 A 17.566 17.566 0 0 0 312.188 62.25 Z M 429.844 63.688 L 429.25 62.25 A 14.096 14.096 0 0 0 434.025 59.593 Q 438.125 56.016 438.125 49.219 L 438.125 41.938 A 15.955 15.955 0 0 1 438.509 38.288 Q 439.715 33.163 444.719 31.906 A 8.152 8.152 0 0 1 440.798 29.874 Q 438.125 27.287 438.125 21.875 L 438.125 14.781 A 19.355 19.355 0 0 0 437.528 9.783 Q 435.843 3.483 429.406 1.406 L 429.844 0 A 17.201 17.201 0 0 1 433.361 1.519 A 12.151 12.151 0 0 1 437.297 5.078 A 13.111 13.111 0 0 1 439.191 9.273 Q 439.653 11.021 439.772 13.075 A 24.986 24.986 0 0 1 439.813 14.25 L 439.813 22.031 A 14.573 14.573 0 0 0 440.16 25.369 Q 441.46 30.875 447.625 30.875 L 447.625 32.938 Q 440.121 32.938 439.825 41.154 A 19.135 19.135 0 0 0 439.813 41.844 L 439.813 49.25 Q 439.813 53.632 438.418 56.709 A 11.69 11.69 0 0 1 437.359 58.578 Q 434.906 62.094 429.844 63.688 Z M 239.281 32.781 L 239.281 33.313 A 29.759 29.759 0 0 1 238.879 38.364 Q 238.11 42.819 235.875 45.875 Q 232.606 50.344 227.063 50.524 A 14.459 14.459 0 0 1 226.594 50.531 A 15.773 15.773 0 0 1 222.667 50.059 A 13.226 13.226 0 0 1 219.781 48.953 Q 216.781 47.375 215.063 44.563 L 215.063 49.906 L 213.375 49.906 L 213.375 1.906 L 215.063 1.906 L 215.063 22.25 Q 216.844 18.906 219.766 17.188 A 12.442 12.442 0 0 1 224.639 15.58 A 15.761 15.761 0 0 1 226.531 15.469 Q 232.469 15.469 235.875 20.016 A 15.395 15.395 0 0 1 238.233 24.793 Q 238.888 26.937 239.134 29.521 A 34.491 34.491 0 0 1 239.281 32.781 Z M 24.563 36.406 L 24.563 4.406 L 26.25 4.406 L 26.25 36.094 A 19.651 19.651 0 0 1 25.786 40.488 Q 24.971 44.041 22.728 46.531 A 12.692 12.692 0 0 1 22.656 46.609 A 11.907 11.907 0 0 1 14.792 50.449 A 16.55 16.55 0 0 1 13.125 50.531 A 19.079 19.079 0 0 1 9.307 50.173 Q 7.025 49.707 5.278 48.633 A 10.162 10.162 0 0 1 3.375 47.125 A 11.012 11.012 0 0 1 0.646 42.364 Q 0.141 40.635 0.031 38.562 A 22.321 22.321 0 0 1 0 37.375 L 1.688 37.375 A 17.342 17.342 0 0 0 1.981 40.671 Q 2.603 43.883 4.547 45.891 A 8.975 8.975 0 0 0 8.256 48.151 Q 9.699 48.627 11.459 48.776 A 19.779 19.779 0 0 0 13.125 48.844 A 12.182 12.182 0 0 0 17.117 48.215 A 10.34 10.34 0 0 0 21.297 45.5 Q 24.469 42.156 24.563 36.406 Z M 156.875 30.688 L 144.125 30.688 L 144.125 49.906 L 142.438 49.906 L 142.438 4.406 L 156.656 4.406 Q 163.625 4.406 167.484 7.922 A 11.513 11.513 0 0 1 171.038 14.388 A 16.974 16.974 0 0 1 171.344 17.688 Q 171.344 23.875 167.578 27.25 A 12.451 12.451 0 0 1 162.936 29.824 Q 160.29 30.657 156.875 30.688 Z M 331.125 49.906 L 318.375 49.906 L 318.375 4.406 L 330.969 4.406 A 19.196 19.196 0 0 1 337.83 5.615 A 18.006 18.006 0 0 1 340.531 6.906 A 17.649 17.649 0 0 1 347.25 13.922 A 20.967 20.967 0 0 1 349.672 22.31 A 25.132 25.132 0 0 1 349.75 24.031 L 349.75 29.938 A 23.267 23.267 0 0 1 348.907 36.295 A 20.215 20.215 0 0 1 347.359 40.187 Q 344.969 44.75 340.688 47.313 A 18.412 18.412 0 0 1 331.454 49.902 A 21.797 21.797 0 0 1 331.125 49.906 Z M 331.219 6.094 L 320.063 6.094 L 320.063 48.219 L 330.969 48.219 Q 335.75 48.219 339.672 45.891 A 16.276 16.276 0 0 0 345.813 39.391 A 19.397 19.397 0 0 0 348.029 31.228 A 22.999 22.999 0 0 0 348.063 30.125 L 348.063 24.281 A 20.653 20.653 0 0 0 347.171 18.14 A 18.537 18.537 0 0 0 345.891 15.031 A 16.264 16.264 0 0 0 339.828 8.516 Q 335.938 6.156 331.219 6.094 Z M 259.094 33.844 L 259.094 32.344 A 21.675 21.675 0 0 1 259.666 27.273 A 18.042 18.042 0 0 1 260.953 23.641 A 14.827 14.827 0 0 1 264.098 19.266 A 13.849 13.849 0 0 1 266.203 17.625 A 13.877 13.877 0 0 1 273.343 15.477 A 16.679 16.679 0 0 1 273.875 15.469 A 14.774 14.774 0 0 1 278.961 16.328 A 13.655 13.655 0 0 1 281.5 17.563 A 13.946 13.946 0 0 1 286.39 22.78 A 16.926 16.926 0 0 1 286.766 23.5 A 18.765 18.765 0 0 1 288.555 29.806 A 23.118 23.118 0 0 1 288.688 32.156 L 288.688 33.656 Q 288.688 38.531 286.844 42.375 A 14.652 14.652 0 0 1 283.577 46.863 A 13.859 13.859 0 0 1 281.609 48.375 A 13.877 13.877 0 0 1 274.469 50.523 A 16.679 16.679 0 0 1 273.938 50.531 A 14.751 14.751 0 0 1 268.818 49.659 A 13.642 13.642 0 0 1 266.266 48.406 A 14.117 14.117 0 0 1 261.24 42.925 A 16.903 16.903 0 0 1 261 42.453 A 18.745 18.745 0 0 1 259.225 36.175 A 23.033 23.033 0 0 1 259.094 33.844 Z M 250.563 1.906 L 250.563 49.906 L 248.875 49.906 L 248.875 1.906 L 250.563 1.906 Z M 260.781 32.656 L 260.781 33.656 A 18.518 18.518 0 0 0 261.554 39.066 A 16.72 16.72 0 0 0 262.453 41.391 A 13.997 13.997 0 0 0 264.901 45.02 A 12.462 12.462 0 0 0 267.109 46.875 A 11.956 11.956 0 0 0 273.224 48.826 A 14.557 14.557 0 0 0 273.938 48.844 A 12.499 12.499 0 0 0 278.887 47.889 A 11.894 11.894 0 0 0 283.359 44.5 A 15.232 15.232 0 0 0 286.589 37.629 A 21.606 21.606 0 0 0 287 33.312 L 287 32.344 A 17.892 17.892 0 0 0 285.907 26.059 A 16.946 16.946 0 0 0 285.313 24.656 A 14.246 14.246 0 0 0 282.871 21.029 A 12.613 12.613 0 0 0 280.641 19.141 A 11.918 11.918 0 0 0 273.993 17.157 A 14.342 14.342 0 0 0 273.875 17.156 A 12.313 12.313 0 0 0 268.773 18.19 A 12.015 12.015 0 0 0 264.438 21.563 A 15.659 15.659 0 0 0 261.055 29.17 A 21.42 21.42 0 0 0 260.781 32.656 Z M 215.063 25.844 L 215.063 41.344 A 11.911 11.911 0 0 0 217.014 44.784 A 10.603 10.603 0 0 0 219.359 46.891 Q 222.313 48.844 226.625 48.844 Q 231.844 48.844 234.688 44.688 A 14.06 14.06 0 0 0 236.475 40.873 Q 237.036 39.057 237.299 36.852 A 35.524 35.524 0 0 0 237.531 32.656 A 29.89 29.89 0 0 0 237.249 28.415 Q 236.919 26.118 236.204 24.244 A 13.547 13.547 0 0 0 234.641 21.266 A 9.502 9.502 0 0 0 231.207 18.2 Q 229.177 17.156 226.563 17.156 A 13.723 13.723 0 0 0 223.035 17.59 A 10.736 10.736 0 0 0 219.359 19.344 A 10.928 10.928 0 0 0 216.358 22.799 A 15.543 15.543 0 0 0 215.063 25.844 Z M 144.125 6.094 L 144.125 29 L 156.656 29 A 20.587 20.587 0 0 0 160.402 28.68 Q 162.541 28.284 164.228 27.397 A 10.53 10.53 0 0 0 166.234 26.031 A 9.705 9.705 0 0 0 169.468 20.111 A 14.217 14.217 0 0 0 169.656 17.75 A 14.187 14.187 0 0 0 169.224 14.146 A 9.912 9.912 0 0 0 166.234 9.172 A 11.291 11.291 0 0 0 161.751 6.748 Q 160.058 6.257 158.039 6.135 A 22.814 22.814 0 0 0 156.656 6.094 L 144.125 6.094 Z M 93.969 40.781 L 93.969 32.75 L 86.156 32.75 A 29.323 29.323 0 0 0 81.982 33.027 Q 79.847 33.335 78.117 33.984 A 12.258 12.258 0 0 0 75.063 35.625 A 8.69 8.69 0 0 0 73.22 37.459 A 6.657 6.657 0 0 0 71.938 41.469 A 6.639 6.639 0 0 0 74.071 46.411 A 8.868 8.868 0 0 0 74.406 46.719 A 8.632 8.632 0 0 0 78.902 48.749 A 11.762 11.762 0 0 0 80.656 48.875 Q 85.406 48.875 88.828 46.75 Q 92.25 44.625 93.969 40.781 Z M 200.875 40.781 L 200.875 32.75 L 193.063 32.75 A 29.323 29.323 0 0 0 188.888 33.027 Q 186.753 33.335 185.024 33.984 A 12.258 12.258 0 0 0 181.969 35.625 A 8.69 8.69 0 0 0 180.126 37.459 A 6.657 6.657 0 0 0 178.844 41.469 A 6.639 6.639 0 0 0 180.978 46.411 A 8.868 8.868 0 0 0 181.313 46.719 A 8.632 8.632 0 0 0 185.808 48.749 A 11.762 11.762 0 0 0 187.563 48.875 Q 192.313 48.875 195.734 46.75 Q 199.156 44.625 200.875 40.781 Z" vector-effect="non-scaling-stroke"/></g></svg>